<svg viewBox="0 0 1131.83 159.68" xmlns="http://www.w3.org/2000/svg"><path d="m1066.99 155.12c-2.56-.45-4.26-2.91-3.77-5.47l15.79-82.17c.73-3.8 3.86-6.67 7.7-7.08l36.67-3.89c6.45-.68 10.76 6.5 7.1 11.87l-57.19 84.08c-1.4 2.05-3.87 3.1-6.31 2.66z" fill="#fff200"/><path d="m1073.81.1c2.56.45 4.26 2.91 3.77 5.47l-15.79 82.17c-.73 3.8-3.86 6.67-7.7 7.08l-36.67 3.89c-6.45.68-10.76-6.5-7.1-11.87l57.18-84.08c1.4-2.05 3.87-3.1 6.31-2.66z" fill="#fff200"/><g fill="#fff"><path d="m56.01 89.41c-1.79 1.14-3.13 2.51-4.03 4.13l-6.84 11.67c-.49 1.07-.74 2.06-.74 2.96 0 1.97 1.1 2.96 3.29 2.96 1.63 0 3.36-.57 5.18-1.71 1.83-1.14 3.19-2.52 4.09-4.15l3.42-5.86c.89-1.62 2.26-3.01 4.09-4.15s3.56-1.71 5.18-1.71h29.27c2.2 0 3.29.98 3.29 2.93 0 .9-.29 1.87-.85 2.93l-6.83 11.71c-.9 1.63-2.26 3.01-4.09 4.15s-3.52 1.71-5.06 1.71h-81.96c-2.28 0-3.42-.98-3.42-2.93 0-.89.28-1.87.85-2.93l30.5-52.68c.89-1.63 2.26-3.01 4.09-4.15s3.56-1.71 5.18-1.71h81.97c2.2 0 3.29.98 3.29 2.93 0 .9-.29 1.87-.86 2.93l-13.56 23.42c-.9 1.63-2.26 3.01-4.09 4.15s-3.56 1.71-5.19 1.71h-41.04c-1.63 0-3.34.57-5.13 1.7zm6.07-13.49c-.56 1.07-.85 2.06-.85 2.96 0 1.98 1.14 2.97 3.42 2.97 1.63 0 3.33-.57 5.12-1.71s3.17-2.52 4.15-4.15l6.71-11.71c.57-1.06.85-2.03.85-2.93 0-1.95-1.1-2.93-3.3-2.93-1.63 0-3.35.57-5.14 1.7-1.8 1.13-3.18 2.51-4.16 4.13l-6.8 11.66z"/><path d="m193.45 38.56c.49.81.73 1.91.73 3.29 0 2.03-.49 3.9-1.46 5.61l-36.84 63.67c-.9 1.63-2.26 3.01-4.09 4.15s-3.52 1.71-5.06 1.71h-29.27c-2.28 0-3.42-.98-3.42-2.93 0-.89.28-1.87.85-2.93l37.2-64.4 19.52-33.66c1.22-2.11 2.48-3.17 3.78-3.17.73 0 1.34.37 1.83 1.1l16.22 27.57z"/><path d="m230.19 89.41c-1.79 1.14-3.13 2.51-4.03 4.13l-6.84 11.67c-.49 1.07-.74 2.06-.74 2.96 0 1.97 1.1 2.96 3.29 2.96 1.63 0 3.36-.57 5.18-1.71 1.83-1.14 3.19-2.52 4.09-4.15l3.42-5.86c.89-1.62 2.26-3.01 4.09-4.15s3.56-1.71 5.18-1.71h29.27c2.2 0 3.29.98 3.29 2.93 0 .9-.29 1.87-.85 2.93l-6.83 11.71c-.9 1.63-2.26 3.01-4.09 4.15s-3.52 1.71-5.06 1.71h-81.97c-2.28 0-3.42-.98-3.42-2.93 0-.89.28-1.87.85-2.93l30.49-52.69c.89-1.63 2.26-3.01 4.09-4.15s3.56-1.71 5.18-1.71h81.97c2.2 0 3.29.98 3.29 2.93 0 .9-.29 1.87-.86 2.93l-13.56 23.42c-.9 1.63-2.26 3.01-4.09 4.15s-3.56 1.71-5.19 1.71h-41.04c-1.63 0-3.34.57-5.13 1.7zm6.07-13.49c-.56 1.07-.85 2.06-.85 2.96 0 1.98 1.14 2.97 3.42 2.97 1.63 0 3.33-.57 5.12-1.71s3.17-2.52 4.15-4.15l6.71-11.71c.57-1.06.85-2.03.85-2.93 0-1.95-1.1-2.93-3.3-2.93-1.63 0-3.35.57-5.14 1.7-1.8 1.13-3.18 2.51-4.16 4.13l-6.8 11.66z"/><path d="m366.17 76c-2.28 0-3.42-.98-3.42-2.93 0-.89.28-1.87.85-2.93l3.42-5.85c.57-1.06.85-2.03.85-2.93 0-1.95-1.1-2.93-3.29-2.93-1.62 0-3.33.57-5.12 1.71s-3.17 2.53-4.14 4.15l-23.66 40.98c-.58 1.06-.87 2.03-.87 2.92 0 1.95 1.1 2.92 3.29 2.92 1.63 0 3.35-.57 5.18-1.71s3.19-2.52 4.09-4.15l10.13-17.56c.98-1.63 2.36-3.01 4.15-4.15s3.5-1.71 5.12-1.71h29.27c2.28 0 3.41.98 3.41 2.93 0 .9-.33 1.87-.98 2.93l-13.54 23.42c-.9 1.63-2.26 3.01-4.09 4.15s-3.52 1.71-5.06 1.71h-81.97c-2.28 0-3.42-.98-3.42-2.93 0-.89.28-1.87.85-2.93l30.49-52.69c.89-1.63 2.26-3.01 4.09-4.15s3.56-1.71 5.18-1.71h81.97c2.2 0 3.29.98 3.29 2.93 0 .9-.29 1.87-.85 2.93l-6.83 11.71c-.9 1.63-2.26 3.01-4.09 4.15s-3.52 1.71-5.06 1.71h-29.27z"/><path d="m501.86 36.43c-.17-.28-.54-.42-1.12-.42l-16.91.15.66-1.14 6.83-11.71c.57-1.06.85-2.03.85-2.93 0-1.95-1.1-2.93-3.29-2.93h-29.28c-1.63 0-3.35.57-5.18 1.71s-3.19 2.52-4.09 4.15l-7.44 12.89-7.07.06-4.82.04h-3.22c-.28.02-.52.08-.7.19-.4.24-.47.58-.2 1.03l3.53 6c.2.33.52.62.97.86s.9.35 1.34.34l5.28-.04-44.27 76.71c-1.22 2.03-1.83 4.23-1.83 6.59 0 1.22.24 2.24.73 3.05l16.1 27.44c.49.81 1.1 1.22 1.83 1.22 1.38 0 2.68-1.06 3.9-3.17l59.89-103.92 4.59-7.96 17.09-.14c.56 0 1.09-.13 1.57-.42.25-.15.43-.32.54-.52l3.68-6.6c.11-.2.12-.37.03-.52z"/><path d="m581.09 52.58c2.19 0 3.29.98 3.29 2.93 0 .9-.29 1.87-.85 2.93l-6.83 11.71c-.9 1.63-2.26 3.01-4.09 4.15s-3.52 1.71-5.06 1.71h-29.27c-2.28 0-3.42-.98-3.42-2.93 0-.89.28-1.87.85-2.93l3.42-5.85c.57-1.06.85-2.03.85-2.93 0-1.95-1.1-2.93-3.29-2.93-1.63 0-3.34.57-5.13 1.71s-3.17 2.52-4.15 4.14l-27.15 46.8c-.89 1.64-2.25 3.04-4.08 4.18-1.83 1.15-3.51 1.72-5.05 1.72h-29.22c-2.27 0-3.41-.98-3.41-2.93 0-.89.28-1.87.85-2.93l30.49-52.69c.89-1.63 2.26-3.01 4.09-4.15s3.56-1.71 5.18-1.71h81.97z"/><path d="m574.14 116.99c-2.28 0-3.41-.98-3.41-2.93 0-.89.28-1.87.85-2.93l30.49-52.69c.89-1.63 2.26-3.01 4.09-4.15s3.56-1.71 5.18-1.71h29.27c2.2 0 3.29.98 3.29 2.93 0 .9-.29 1.87-.85 2.93l-30.49 52.69c-.9 1.63-2.26 3.01-4.09 4.15s-3.52 1.71-5.06 1.71h-29.28z"/><path d="m696.36 116.99c-2.28 0-3.41-.98-3.41-2.93 0-.89.28-1.87.85-2.93l30.49-52.69c.89-1.63 2.26-3.01 4.09-4.15s3.56-1.71 5.18-1.71h29.27c2.2 0 3.29.98 3.29 2.93 0 .9-.29 1.87-.85 2.93l-30.49 52.69c-.9 1.63-2.26 3.01-4.09 4.15s-3.52 1.71-5.06 1.71h-29.28z"/><path d="m809.69 89.41c-1.79 1.14-3.13 2.51-4.03 4.13l-6.84 11.67c-.49 1.07-.74 2.06-.74 2.96 0 1.97 1.1 2.96 3.29 2.96 1.63 0 3.36-.57 5.18-1.71 1.83-1.14 3.19-2.52 4.09-4.15l3.42-5.86c.89-1.62 2.26-3.01 4.09-4.15s3.56-1.71 5.18-1.71h29.27c2.2 0 3.29.98 3.29 2.93 0 .9-.29 1.87-.85 2.93l-6.83 11.71c-.9 1.63-2.26 3.01-4.09 4.15s-3.52 1.71-5.06 1.71h-81.97c-2.28 0-3.42-.98-3.42-2.93 0-.89.28-1.87.85-2.93l30.49-52.69c.89-1.63 2.26-3.01 4.09-4.15s3.56-1.71 5.18-1.71h81.97c2.2 0 3.29.98 3.29 2.93 0 .9-.29 1.87-.86 2.93l-13.56 23.42c-.9 1.63-2.26 3.01-4.09 4.15s-3.56 1.71-5.19 1.71h-41.04c-1.63 0-3.34.57-5.13 1.7zm6.07-13.49c-.56 1.07-.85 2.06-.85 2.96 0 1.98 1.14 2.97 3.42 2.97 1.63 0 3.33-.57 5.12-1.71s3.17-2.52 4.15-4.15l6.71-11.71c.57-1.06.85-2.03.85-2.93 0-1.95-1.1-2.93-3.3-2.93-1.63 0-3.35.57-5.14 1.7-1.8 1.13-3.18 2.51-4.16 4.13l-6.8 11.66z"/><path d="m998.61 38.56c.49.81.73 1.91.73 3.29 0 2.03-.49 3.9-1.46 5.61l-36.84 63.67c-.9 1.63-2.26 3.01-4.09 4.15s-3.52 1.71-5.06 1.71h-81.97c-2.28 0-3.42-.98-3.42-2.93 0-.89.28-1.87.85-2.93l30.49-52.69c.89-1.63 2.26-3.01 4.09-4.15s3.56-1.71 5.18-1.71h40.98c1.53 0 3.21-.57 5.03-1.72 1.82-1.14 3.17-2.54 4.06-4.17l19.58-33.63c1.22-2.11 2.48-3.17 3.78-3.17.73 0 1.34.37 1.83 1.1l16.22 27.57zm-51.45 25.75c.55-1.06.83-2.04.83-2.93 0-1.96-1.1-2.93-3.29-2.93-1.62 0-3.32.57-5.1 1.71s-3.16 2.53-4.13 4.16l-23.68 40.97c-.58 1.06-.87 2.03-.87 2.92 0 1.95 1.1 2.92 3.29 2.92 1.63 0 3.36-.57 5.18-1.71 1.83-1.14 3.19-2.52 4.09-4.15l23.68-40.97z"/><path d="m754.23 17.64c-.17-.28-.54-.42-1.12-.42l-26 .23h-34.17c-1.63 0-3.34.57-5.12 1.71-1.79 1.14-3.13 2.52-4.03 4.15l-56.6 97.95c-1.22 2.11-1.83 4.31-1.83 6.59 0 1.3.24 2.32.73 3.05l16.1 27.57c.49.73 1.1 1.1 1.83 1.1 1.38 0 2.68-1.06 3.9-3.17l59.89-103.8 4.42-7.96 16.78-.14c.56 0 1.09-.13 1.57-.42.25-.15.43-.32.54-.52l3.68-6.6c.11-.2.12-.37.03-.52-.17-.28-.54-.42-1.12-.42l-16.77.15 5.69-10.24 25.78-.21c.56 0 1.09-.13 1.57-.42.25-.15.43-.32.54-.52l3.68-6.6c.11-.2.12-.37.03-.52z"/></g></svg>